3.0Hz3min_grf.mot
version=1
nRows=30
nColumns 19
inDegrees=yes
endheader
time	1_ground_force_vx	1_ground_force_vy	1_ground_force_vz	1_ground_force_px	1_ground_force_py	1_ground_force_pz	1_ground_torque_x	1_ground_torque_y	1_ground_torque_z	2_ground_force_vx	2_ground_force_vy	2_ground_force_vz	2_ground_force_px	2_ground_force_py	2_ground_force_pz	2_ground_torque_x	2_ground_torque_y	2_ground_torque_z
            0.005000	           -4.418796	          279.692313	          -22.360379	           -0.181682	            0.006130	           -0.381390	           -0.005023	            0.317951	           -0.025419	           -0.385484	          265.278081	           23.847497	           -0.179617	            0.005856	           -0.703569	           -0.000958	            0.659433	            0.059281
            0.005500	           -4.508567	          273.561886	          -22.065441	           -0.181958	            0.006134	           -0.382307	           -0.002923	            0.177348	           -0.014305	           -0.372274	          261.595815	           23.646644	           -0.180612	            0.005854	           -0.704106	           -0.000960	            0.674529	            0.060973
            0.006000	           -4.461871	          270.136424	          -21.988529	           -0.181378	            0.006128	           -0.380914	           -0.002220	            0.134378	           -0.010938	           -0.163812	          255.705388	           23.156257	           -0.180159	            0.005853	           -0.703248	           -0.000431	            0.673252	            0.060969
            0.006500	           -4.093618	          264.367206	          -21.830751	           -0.181765	            0.006130	           -0.381352	           -0.001335	            0.086212	           -0.007119	           -0.149458	          251.656316	           22.531737	           -0.180425	            0.005855	           -0.704134	           -0.000372	            0.626938	            0.056132
            0.007000	           -4.229965	          259.139113	          -21.761113	           -0.181410	            0.006130	           -0.381419	           -0.000913	            0.055929	           -0.004697	           -0.032681	          245.212962	           22.086347	           -0.179739	            0.005855	           -0.703257	           -0.000077	            0.578375	            0.052094
            0.007500	           -3.816085	          255.172334	          -21.549863	           -0.181588	            0.006128	           -0.381069	           -0.002980	            0.199271	           -0.016829	            0.076181	          240.978885	           21.789626	           -0.179932	            0.005855	           -0.703691	            0.000200	            0.632803	            0.057219
            0.008000	           -3.677734	          250.665719	          -21.569528	           -0.181622	            0.006126	           -0.380484	           -0.002271	            0.154762	           -0.013317	            0.283314	          235.456801	           21.300553	           -0.178955	            0.005859	           -0.703670	            0.000795	            0.660559	            0.059757
            0.008500	           -3.538031	          245.616144	          -21.087098	           -0.181353	            0.006127	           -0.380683	           -0.003158	            0.219211	           -0.018820	            0.392115	          231.223226	           20.863048	           -0.179270	            0.005856	           -0.703237	            0.001066	            0.628485	            0.056708
            0.009000	           -3.490419	          239.666206	          -20.837584	           -0.181034	            0.006130	           -0.381394	           -0.001731	            0.118887	           -0.010337	            0.687692	          227.174165	           20.519977	           -0.179244	            0.005858	           -0.703801	            0.001943	            0.641949	            0.057985
            0.009500	           -3.122595	          236.240442	          -20.669757	           -0.181196	            0.006127	           -0.380801	           -0.000425	            0.032185	           -0.002816	            0.705431	          222.203826	           20.032955	           -0.180073	            0.005855	           -0.703685	            0.001878	            0.591504	            0.053327
            0.010000	           -2.938463	          230.832901	          -20.785112	           -0.181401	            0.006128	           -0.380996	           -0.000574	            0.045092	           -0.004060	            0.908699	          217.785613	           19.829393	           -0.179608	            0.005855	           -0.703289	            0.002320	            0.556088	            0.050632
            0.010500	           -3.119940	          226.684789	          -20.343876	           -0.180746	            0.006126	           -0.380561	           -0.000202	            0.014710	           -0.001320	            0.688263	          213.918831	           19.487198	           -0.180077	            0.005857	           -0.704269	            0.001869	            0.580893	            0.052917
            0.011000	           -2.844155	          221.457531	          -20.458687	           -0.180360	            0.006129	           -0.381085	           -0.000920	            0.071656	           -0.006620	            0.891490	          209.500952	           19.189780	           -0.179875	            0.005858	           -0.704496	            0.002444	            0.574410	            0.052615
            0.011500	           -2.751062	          217.490524	          -20.200784	           -0.180486	            0.006128	           -0.380997	           -0.001274	            0.100691	           -0.009352	            0.815529	          204.530275	           18.702799	           -0.179472	            0.005858	           -0.703924	            0.002680	            0.672230	            0.061471
            0.012000	           -2.611949	          214.424265	          -19.801562	           -0.180765	            0.006124	           -0.379909	           -0.000907	            0.074427	           -0.006873	            0.923686	          200.480674	           18.312879	           -0.179167	            0.005860	           -0.704110	            0.003194	            0.693195	            0.063320
            0.012500	           -2.198327	          209.376709	          -19.778373	           -0.180586	            0.006123	           -0.379768	           -0.000632	            0.060192	           -0.005686	            1.223210	          195.327043	           17.872008	           -0.179103	            0.005857	           -0.703378	            0.004148	            0.662406	            0.060609
            0.013000	           -2.472221	          204.869424	          -19.659447	           -0.180561	            0.006126	           -0.380365	            0.000962	           -0.079760	            0.007654	            1.331490	          191.276468	           17.763657	           -0.178824	            0.005861	           -0.704058	            0.003942	            0.566292	            0.052591
            0.013500	           -2.149683	          199.640602	          -19.407524	           -0.180300	            0.006126	           -0.380486	            0.000130	           -0.012086	            0.001175	            1.721452	          187.043406	           17.466817	           -0.178407	            0.005859	           -0.703127	            0.004931	            0.535806	            0.050036
            0.014000	           -2.056967	          197.115917	          -19.189293	           -0.181030	            0.006124	           -0.380039	            0.000103	           -0.009889	            0.000963	            1.409289	          182.624001	           17.075762	           -0.178880	            0.005857	           -0.703055	            0.004467	            0.578834	            0.054122
            0.014500	           -1.735213	          193.690538	          -19.113064	           -0.180851	            0.006119	           -0.378839	           -0.000797	            0.088970	           -0.008779	            1.797216	          178.943727	           16.687037	           -0.178825	            0.005858	           -0.703300	            0.005610	            0.558604	            0.052092
            0.015000	           -1.870991	          188.461431	          -18.814148	           -0.180846	            0.006123	           -0.379805	           -0.000496	            0.049946	           -0.004986	            1.622362	          175.444894	           16.486920	           -0.179314	            0.005860	           -0.704442	            0.006037	            0.652862	            0.061351
            0.015500	           -1.685754	          183.232189	          -18.470171	           -0.179854	            0.006125	           -0.380304	            0.000102	           -0.011088	            0.001118	            1.636155	          171.579126	           16.097697	           -0.178779	            0.005863	           -0.704594	            0.006209	            0.651073	            0.061084
            0.016000	           -1.410169	          180.347991	          -18.483221	           -0.180026	            0.006128	           -0.380948	            0.000738	           -0.094437	            0.009679	            1.698709	          167.161744	           15.518770	           -0.178373	            0.005860	           -0.703314	            0.006569	            0.646383	            0.060008
            0.016500	           -1.362967	          176.020641	          -18.272607	           -0.180737	            0.006127	           -0.380782	            0.000772	           -0.099672	            0.010347	            1.477793	          163.477597	           15.599585	           -0.178067	            0.005860	           -0.703028	            0.005432	            0.600925	            0.057342
            0.017000	           -1.315295	          172.233104	          -17.830393	           -0.179585	            0.006125	           -0.380161	            0.000973	           -0.127379	            0.013187	            1.956761	          160.534254	           15.213448	           -0.178780	            0.005860	           -0.703903	            0.006231	            0.511172	            0.048443
            0.017500	           -1.177386	          169.529343	          -17.888185	           -0.180497	            0.006122	           -0.379622	            0.000018	           -0.002563	            0.000270	            1.969807	          156.853296	           14.637169	           -0.178514	            0.005860	           -0.703483	            0.007143	            0.568802	            0.053079
            0.018000	           -0.947171	          165.923483	          -17.766646	           -0.179985	            0.006117	           -0.378444	            0.000175	           -0.030622	            0.003279	            1.889317	          153.170661	           14.436356	           -0.178585	            0.005860	           -0.703541	            0.007148	            0.579512	            0.054619
            0.018500	           -0.992192	          161.416833	          -17.785856	           -0.179985	            0.006125	           -0.380143	           -0.000165	            0.026824	           -0.002956	            1.808828	          149.488025	           14.235542	           -0.178689	            0.005859	           -0.703345	            0.007701	            0.636454	            0.060609
            0.019000	           -0.945481	          158.532001	          -17.660769	           -0.180018	            0.006121	           -0.379179	            0.000415	           -0.069584	            0.007752	            1.959182	          146.727639	           13.850201	           -0.178793	            0.005863	           -0.704606	            0.007630	            0.571434	            0.053940
            0.019500	           -0.990327	          156.187555	          -17.441424	           -0.180716	            0.006120	           -0.379170	            0.000789	           -0.124371	            0.013888	            1.734176	          144.149234	           13.700318	           -0.178382	            0.005866	           -0.705036	            0.007225	            0.600532	            0.057076
